<?xml version="1.0" encoding="UTF-8"?>
<svg version="1.1" xmlns="http://www.w3.org/2000/svg" width="280" height="280">
<path d="M0 0 C0.88983582 -0.01106781 1.77967163 -0.02213562 2.69647217 -0.03353882 C5.56735433 -0.06045275 8.43759099 -0.06679499 11.30859375 -0.06640625 C12.28251068 -0.06780609 13.25642761 -0.06920593 14.25985718 -0.07064819 C28.37386916 -0.05387861 41.32871456 0.6620612 54.74609375 5.37109375 C56.56560547 5.9125 56.56560547 5.9125 58.421875 6.46484375 C70.62771103 10.33532403 83.43741006 16.68914196 93.74609375 24.37109375 C93.74609375 25.03109375 93.74609375 25.69109375 93.74609375 26.37109375 C94.40609375 26.55671875 95.06609375 26.74234375 95.74609375 26.93359375 C99.3528486 28.66183045 101.86775407 30.94593961 104.80859375 33.625 C106.39122608 35.05128358 108.0587198 36.38290966 109.74609375 37.68359375 C110.73609375 38.51890625 110.73609375 38.51890625 111.74609375 39.37109375 C111.74609375 40.03109375 111.74609375 40.69109375 111.74609375 41.37109375 C112.33390625 41.62246094 112.92171875 41.87382813 113.52734375 42.1328125 C116.0229155 43.52558758 117.4113989 45.00280873 119.24609375 47.18359375 C119.84550781 47.89515625 120.44492188 48.60671875 121.0625 49.33984375 C121.61808594 50.01015625 122.17367187 50.68046875 122.74609375 51.37109375 C123.95265625 52.76328125 123.95265625 52.76328125 125.18359375 54.18359375 C126.74609375 56.37109375 126.74609375 56.37109375 126.74609375 59.37109375 C127.40609375 59.37109375 128.06609375 59.37109375 128.74609375 59.37109375 C144.17437749 85.59217497 153.39702564 110.36844791 153.24609375 140.99609375 C153.24566071 141.87484161 153.24522766 142.75358948 153.24478149 143.65896606 C153.20846798 157.1202492 152.1654013 169.56139542 147.74609375 182.37109375 C147.39140015 183.48883179 147.39140015 183.48883179 147.02954102 184.62915039 C145.44738522 189.57909026 143.56187752 194.25398295 141.30859375 198.93359375 C140.85117798 199.89857788 140.85117798 199.89857788 140.38452148 200.88305664 C138.23128736 205.40959262 136.02409682 209.90620774 133.74609375 214.37109375 C133.08609375 214.37109375 132.42609375 214.37109375 131.74609375 214.37109375 C131.53984375 215.19609375 131.33359375 216.02109375 131.12109375 216.87109375 C129.39588588 221.26253197 126.97140314 224.91790924 123.74609375 228.37109375 C123.08609375 228.37109375 122.42609375 228.37109375 121.74609375 228.37109375 C121.40578125 229.17546875 121.40578125 229.17546875 121.05859375 229.99609375 C118.00128055 235.52837477 113.65546853 239.49547473 108.88671875 243.53125 C107.48994505 244.7317617 106.12294373 245.96807146 104.79296875 247.2421875 C97.86155599 253.81644732 89.93754051 258.55075741 81.74609375 263.37109375 C80.82135254 263.92893555 80.82135254 263.92893555 79.87792969 264.49804688 C69.39396836 270.78044241 58.56128995 274.37846086 46.74609375 277.37109375 C44.83570313 277.88349609 44.83570313 277.88349609 42.88671875 278.40625 C23.11218508 282.81654537 -1.70279027 282.60276492 -21.25390625 277.37109375 C-22.88392578 276.9534375 -22.88392578 276.9534375 -24.546875 276.52734375 C-52.54181084 268.61647272 -77.15826215 252.86029166 -96.06640625 230.74609375 C-96.56849609 230.17375 -97.07058594 229.60140625 -97.58789062 229.01171875 C-101.25390625 224.72223108 -101.25390625 224.72223108 -101.25390625 221.37109375 C-102.24390625 221.04109375 -103.23390625 220.71109375 -104.25390625 220.37109375 C-105.81640625 218.05859375 -105.81640625 218.05859375 -107.25390625 215.37109375 C-107.66640625 214.73171875 -108.07890625 214.09234375 -108.50390625 213.43359375 C-109.58675668 210.45575506 -108.96896642 208.43185394 -108.25390625 205.37109375 C-106.90625 203.01953125 -106.90625 203.01953125 -105.19140625 200.74609375 C-102.49312798 197.06962092 -99.88908859 193.36662588 -97.37890625 189.55859375 C-96.00514486 187.49526854 -94.63007359 185.43281504 -93.25390625 183.37109375 C-92.85816406 182.77699707 -92.46242187 182.18290039 -92.0546875 181.57080078 C-90.83674806 179.74917448 -89.60907163 177.93447999 -88.37890625 176.12109375 C-87.8068042 175.26100708 -87.8068042 175.26100708 -87.22314453 174.38354492 C-86.284681 173.00959214 -85.27512962 171.68470057 -84.25390625 170.37109375 C-83.59390625 170.37109375 -82.93390625 170.37109375 -82.25390625 170.37109375 C-81.92519531 169.34822266 -81.92519531 169.34822266 -81.58984375 168.3046875 C-79.86972075 164.52745835 -77.49482326 161.6312081 -74.87890625 158.43359375 C-72.18124818 155.10479909 -69.55670617 151.83573501 -67.21484375 148.2421875 C-65.15170581 145.22145764 -62.8702617 142.92046419 -60.25390625 140.37109375 C-58.37452794 138.26360249 -56.5637679 136.10086505 -54.75390625 133.93359375 C-54.29371094 133.38638672 -53.83351563 132.83917969 -53.359375 132.27539062 C-52.90175781 131.73076172 -52.44414063 131.18613281 -51.97265625 130.625 C-51.52277344 130.0902002 -51.07289062 129.55540039 -50.609375 129.00439453 C-49.68286711 127.88797922 -48.76930083 126.76072981 -47.8671875 125.62451172 C-46.70442647 124.17233913 -45.48355487 122.76708182 -44.25390625 121.37109375 C-43.59390625 121.37109375 -42.93390625 121.37109375 -42.25390625 121.37109375 C-42.02703125 120.83484375 -41.80015625 120.29859375 -41.56640625 119.74609375 C-39.10730138 115.29628494 -35.91516815 111.80839611 -32.00390625 108.62109375 C-29.23030687 106.66477491 -29.23030687 106.66477491 -28.25390625 104.37109375 C-27.59390625 104.37109375 -26.93390625 104.37109375 -26.25390625 104.37109375 C-26.25390625 103.71109375 -26.25390625 103.05109375 -26.25390625 102.37109375 C-24.609375 100.6796875 -24.609375 100.6796875 -22.44140625 98.80859375 C-21.73371094 98.18855469 -21.02601562 97.56851563 -20.296875 96.9296875 C-18.25390625 95.37109375 -18.25390625 95.37109375 -15.25390625 94.37109375 C-14.75890625 92.88609375 -14.75890625 92.88609375 -14.25390625 91.37109375 C-9.79676339 87.37109375 -9.79676339 87.37109375 -7.25390625 87.37109375 C-6.75890625 85.88609375 -6.75890625 85.88609375 -6.25390625 84.37109375 C-3.94140625 81.62109375 -3.94140625 81.62109375 -1.25390625 79.37109375 C0.9140625 79.73046875 0.9140625 79.73046875 2.74609375 80.37109375 C1.42678378 91.33908859 -1.31407597 101.74805221 -4.25390625 112.37109375 C-4.67480139 113.91137032 -5.09538139 115.45173304 -5.515625 116.9921875 C-7.9301291 125.79942393 -10.46957986 134.566928 -13.05859375 143.32421875 C-14.19558606 147.1705223 -15.32535489 151.0186498 -16.44140625 154.87109375 C-16.74433594 155.91265625 -17.04726562 156.95421875 -17.359375 158.02734375 C-19.32331463 165.36853294 -20.59178549 172.05928533 -20.50390625 179.68359375 C-20.50003906 180.50448486 -20.49617188 181.32537598 -20.4921875 182.17114258 C-20.39995737 188.70090748 -19.68051892 194.98954956 -18.25390625 201.37109375 C-10.7139587 198.53104684 -4.47253337 195.47972937 1.74609375 190.37109375 C8.35604139 185.37109375 8.35604139 185.37109375 10.74609375 185.37109375 C11.07609375 184.38109375 11.40609375 183.39109375 11.74609375 182.37109375 C13.9209592 180.54024187 16.09759821 178.81998228 18.37109375 177.12109375 C22.92096445 173.640906 27.1998006 170.16560793 31.15625 166.0078125 C33.04935816 164.05888788 35.03217361 162.24328447 37.05859375 160.43359375 C37.71472656 159.84707031 38.37085938 159.26054687 39.046875 158.65625 C40.74609375 157.37109375 40.74609375 157.37109375 42.74609375 157.37109375 C43.01421875 156.77296875 43.28234375 156.17484375 43.55859375 155.55859375 C44.74526781 153.37261521 45.84208488 151.95776781 47.74609375 150.37109375 C48.40609375 150.37109375 49.06609375 150.37109375 49.74609375 150.37109375 C49.74609375 149.71109375 49.74609375 149.05109375 49.74609375 148.37109375 C51.28515625 146.8203125 51.28515625 146.8203125 53.37109375 145.05859375 C54.09683594 144.44242188 54.82257813 143.82625 55.5703125 143.19140625 C56.28832031 142.59070313 57.00632813 141.99 57.74609375 141.37109375 C58.35066406 140.85289062 58.95523438 140.3346875 59.578125 139.80078125 C63.60555804 136.37109375 63.60555804 136.37109375 64.74609375 136.37109375 C64.81957031 137.41330078 64.81957031 137.41330078 64.89453125 138.4765625 C66.44938116 159.62788281 68.642166 180.55050029 72.74609375 201.37109375 C78.43189332 201.00467556 82.74582361 200.30603492 87.74609375 197.37109375 C94.56623763 193.37109375 94.56623763 193.37109375 96.74609375 193.37109375 C96.74609375 192.71109375 96.74609375 192.05109375 96.74609375 191.37109375 C98.27734375 189.86328125 98.27734375 189.86328125 100.24609375 188.24609375 C100.89578125 187.70726562 101.54546875 187.1684375 102.21484375 186.61328125 C102.72015625 186.20335937 103.22546875 185.7934375 103.74609375 185.37109375 C100.59666978 172.80124485 100.59666978 172.80124485 92.62109375 163.49609375 C91.67234375 163.12484375 90.72359375 162.75359375 89.74609375 162.37109375 C87.09284384 159.71784384 87.46091885 158.41745229 87.38305664 154.70776367 C87.33757187 152.9115155 87.33757187 152.9115155 87.29116821 151.07897949 C87.2553212 149.11015808 87.2553212 149.11015808 87.21875 147.1015625 C87.18607085 145.72372926 87.15230679 144.34592137 87.11752319 142.96813965 C87.04442997 140.02843638 86.97621078 137.08868018 86.91183472 134.14877319 C86.74242618 126.49294812 86.53382335 118.83818906 86.31640625 111.18359375 C86.2948667 110.42070227 86.27332714 109.65781078 86.25113487 108.87180138 C85.85055497 94.91422004 85.15800339 80.98873972 84.18359375 67.05859375 C84.11947296 66.12647064 84.05535217 65.19434753 83.98928833 64.23397827 C83.80844746 61.63730301 83.62139077 59.04120677 83.4296875 56.4453125 C83.34852188 55.33428162 83.34852188 55.33428162 83.26571655 54.20080566 C82.95434314 50.21209055 82.46724424 46.306427 81.74609375 42.37109375 C78.24148576 45.69411583 75.51723144 48.98460506 72.93359375 53.05859375 C69.79057531 57.87906586 66.44615255 62.36963299 62.8046875 66.8203125 C59.7970889 70.5469954 56.95886326 74.3948515 54.09765625 78.234375 C51.67361787 81.46776838 49.21605621 84.67279067 46.74609375 87.87109375 C43.41578569 92.19109024 40.0984447 96.52017256 36.80859375 100.87109375 C35.74318359 102.27875 35.74318359 102.27875 34.65625 103.71484375 C32.72301851 106.31865456 32.72301851 106.31865456 31.1796875 109.02734375 C29.85698506 111.18980005 28.55522761 112.62914258 26.74609375 114.37109375 C25.42599381 116.20043105 24.17825049 118.0666336 22.9296875 119.9453125 C22.53910156 120.41582031 22.14851562 120.88632813 21.74609375 121.37109375 C21.08609375 121.37109375 20.42609375 121.37109375 19.74609375 121.37109375 C19.40771484 122.40169922 19.40771484 122.40169922 19.0625 123.453125 C17.41308805 127.10923992 15.17876908 129.94227152 12.68359375 133.05859375 C9.42051071 137.02039006 9.42051071 137.02039006 6.74609375 141.37109375 C6.08609375 141.37109375 5.42609375 141.37109375 4.74609375 141.37109375 C4.08609375 143.02109375 3.42609375 144.67109375 2.74609375 146.37109375 C2.08609375 146.37109375 1.42609375 146.37109375 0.74609375 146.37109375 C0.37484375 147.44423828 0.37484375 147.44423828 -0.00390625 148.5390625 C-1.3925422 151.68519081 -3.09854571 154.00920338 -5.25390625 156.68359375 C-5.95515625 157.56660156 -6.65640625 158.44960937 -7.37890625 159.359375 C-7.99765625 160.02324219 -8.61640625 160.68710938 -9.25390625 161.37109375 C-9.91390625 161.37109375 -10.57390625 161.37109375 -11.25390625 161.37109375 C-10.67190746 155.62870572 -9.56576852 150.38351867 -7.87890625 144.87109375 C-7.67007813 144.16339844 -7.46125 143.45570313 -7.24609375 142.7265625 C-6.19131291 139.20848251 -5.04404106 135.76398979 -3.71484375 132.33984375 C-2.49255443 129.15139808 -1.62551355 125.96113109 -0.83935547 122.63476562 C0.70935004 116.64660986 2.80379357 110.79477223 4.73632812 104.921875 C7.9207307 95.12279062 10.71970699 85.37169307 11.93359375 75.12109375 C12.09214844 73.8371875 12.25070313 72.55328125 12.4140625 71.23046875 C12.90579359 65.51481802 13.1498231 59.98601117 11.74609375 54.37109375 C6.97511584 58.37211557 2.47997361 62.50800066 -1.82421875 67.015625 C-3.26565752 68.50232634 -4.7567696 69.94049651 -6.25390625 71.37109375 C-6.91390625 71.37109375 -7.57390625 71.37109375 -8.25390625 71.37109375 C-8.52203125 72.01046875 -8.79015625 72.64984375 -9.06640625 73.30859375 C-10.25390625 75.37109375 -10.25390625 75.37109375 -13.25390625 76.37109375 C-13.95355114 77.68742169 -14.61691598 79.02333056 -15.25390625 80.37109375 C-16.734375 82.01171875 -16.734375 82.01171875 -18.44140625 83.62109375 C-21.53284158 86.62384036 -24.36965261 89.75093278 -27.1796875 93.015625 C-29.26886817 95.38808441 -31.41045822 97.70134599 -33.56787109 100.01147461 C-40.02078638 106.92358234 -46.43106496 113.92699928 -51.875 121.6796875 C-52.33003906 122.23785156 -52.78507812 122.79601562 -53.25390625 123.37109375 C-53.91390625 123.37109375 -54.57390625 123.37109375 -55.25390625 123.37109375 C-55.51429687 124.11746094 -55.7746875 124.86382812 -56.04296875 125.6328125 C-57.28450881 128.44029502 -58.51209264 129.99086066 -60.62890625 132.18359375 C-73.25804832 145.97534638 -84.28192455 162.15237157 -94.16796875 178 C-94.52632812 178.45246094 -94.8846875 178.90492188 -95.25390625 179.37109375 C-95.91390625 179.37109375 -96.57390625 179.37109375 -97.25390625 179.37109375 C-97.3739502 179.95898682 -97.49399414 180.54687988 -97.61767578 181.15258789 C-98.27217439 183.43479391 -99.09744354 184.91806678 -100.43359375 186.8671875 C-100.86800781 187.50849609 -101.30242187 188.14980469 -101.75 188.81054688 C-102.43255859 189.79958008 -102.43255859 189.79958008 -103.12890625 190.80859375 C-104.02318045 192.11907915 -104.91643234 193.43026283 -105.80859375 194.7421875 C-106.22979492 195.36077637 -106.65099609 195.97936523 -107.08496094 196.61669922 C-108.55453337 198.82228557 -109.92112537 201.08065243 -111.25390625 203.37109375 C-114.25390625 202.37109375 -114.25390625 202.37109375 -115.50878906 200.29345703 C-118.53829779 193.39867045 -120.94668908 186.48786719 -123.00390625 179.24609375 C-123.30683594 178.22644531 -123.60976562 177.20679688 -123.921875 176.15625 C-127.14852363 164.9848754 -127.4664357 154.32858941 -127.49414062 142.76293945 C-127.50378786 140.33834742 -127.53485983 137.91462638 -127.56640625 135.49023438 C-127.74574744 108.74591535 -119.18500961 81.0863114 -103.25390625 59.37109375 C-102.59390625 59.37109375 -101.93390625 59.37109375 -101.25390625 59.37109375 C-101.00511719 58.65179688 -100.75632812 57.9325 -100.5 57.19140625 C-99.13034809 54.09144174 -97.46393321 51.86151764 -95.31640625 49.24609375 C-94.62675781 48.39789063 -93.93710938 47.5496875 -93.2265625 46.67578125 C-89.95681721 42.85568279 -89.95681721 42.85568279 -88.25390625 41.37109375 C-87.59390625 41.37109375 -86.93390625 41.37109375 -86.25390625 41.37109375 C-86.00640625 40.75234375 -85.75890625 40.13359375 -85.50390625 39.49609375 C-84.04761986 37.02040688 -82.87578119 36.41984373 -80.25390625 35.37109375 C-80.25390625 34.71109375 -80.25390625 34.05109375 -80.25390625 33.37109375 C-78.390625 31.64453125 -78.390625 31.64453125 -75.94140625 29.74609375 C-74.74064453 28.79863281 -74.74064453 28.79863281 -73.515625 27.83203125 C-71.25390625 26.37109375 -71.25390625 26.37109375 -68.25390625 26.37109375 C-67.75890625 24.88609375 -67.75890625 24.88609375 -67.25390625 23.37109375 C-53.5891774 12.86691443 -35.47656805 6.08115962 -18.734375 3.08203125 C-15.34396376 2.49036412 -15.34396376 2.49036412 -12.61474609 1.34985352 C-8.34181027 0.10546882 -4.42791817 0.02935724 0 0 Z " fill="#E6004D" transform="translate(127.25390625,-0.37109375)"/>
<path d="M0 0 C0.66 0 1.32 0 2 0 C2.66 0.66 3.32 1.32 4 2 C3.625 5.125 3.625 5.125 3 8 C5.64 7.67 8.28 7.34 11 7 C10.67 7.99 10.34 8.98 10 10 C9.34 10 8.68 10 8 10 C7.34 11.65 6.68 13.3 6 15 C5.34 15 4.68 15 4 15 C3.7525 15.71542969 3.505 16.43085938 3.25 17.16796875 C1.86136405 20.31409706 0.15536054 22.63810963 -2 25.3125 C-2.70125 26.19550781 -3.4025 27.07851562 -4.125 27.98828125 C-5.053125 28.98408203 -5.053125 28.98408203 -6 30 C-6.66 30 -7.32 30 -8 30 C-7.4156916 24.18974236 -6.27175528 18.88875848 -4.5625 13.3125 C-4.34529297 12.57966797 -4.12808594 11.84683594 -3.90429688 11.09179688 C-2.76980565 7.31356636 -1.54213525 3.6365701 0 0 Z " fill="#DC074C" transform="translate(124,131)"/>
<path d="M0 0 C2.475 0.99 2.475 0.99 5 2 C4.34 5.63 3.68 9.26 3 13 C3.66 13 4.32 13 5 13 C5.18175781 14.08539063 5.36351562 15.17078125 5.55078125 16.2890625 C5.80419534 17.73446137 6.05812925 19.17976918 6.3125 20.625 C6.48942383 21.69427734 6.48942383 21.69427734 6.66992188 22.78515625 C7.48335809 27.3320561 8.82015379 30.88251271 11 35 C11.1875 37.875 11.1875 37.875 11 40 C12.485 39.505 12.485 39.505 14 39 C16.6875 39.4375 16.6875 39.4375 19 40 C19 39.01 19 38.02 19 37 C20.98 36.505 20.98 36.505 23 36 C20.69 39.96 18.38 43.92 16 48 C13 47 13 47 11.74511719 44.91577148 C8.74750222 38.08074518 6.31451725 31.23276282 4.25 24.0625 C3.94707031 23.06798828 3.64414062 22.07347656 3.33203125 21.04882812 C1.28661225 14.03531363 0.34622255 7.29251469 0 0 Z " fill="#CD0C49" transform="translate(0,155)"/>
<path d="M0 0 C0 0.66 0 1.32 0 2 C-0.66 2 -1.32 2 -2 2 C-2.33 3.65 -2.66 5.3 -3 7 C-3.99 7.33 -4.98 7.66 -6 8 C-6.66 7.01 -7.32 6.02 -8 5 C-9.90457929 4.56172799 -9.90457929 4.56172799 -12 4.6875 C-13.051875 4.69330078 -13.051875 4.69330078 -14.125 4.69921875 C-16.2416577 4.85087054 -16.2416577 4.85087054 -18 7 C-19.11375 7.28875 -20.2275 7.5775 -21.375 7.875 C-25.0446645 8.69690993 -25.0446645 8.69690993 -27.125 11.1875 C-28.053125 12.0846875 -28.053125 12.0846875 -29 13 C-31.92617631 12.78588954 -34.21433539 11.92855487 -37 11 C-37 11.66 -37 12.32 -37 13 C-38.65 13 -40.3 13 -42 13 C-33.99696679 6.42949063 -23.373126 4.41264122 -13.41015625 2.67578125 C-9.99780297 2.07686873 -9.99780297 2.07686873 -6.80859375 0.91796875 C-4 -0 -4 -0 0 0 Z " fill="#D4084E" transform="translate(122,0)"/>
<path d="M0 0 C0 3 0 3 -1.4375 5.375 C-3.15404286 7.87573494 -3.15404286 7.87573494 -3.375 10.625 C-4 13 -4 13 -6.25 14.4375 C-7.1575 14.953125 -8.065 15.46875 -9 16 C-9.93233671 17.03061722 -10.82775213 18.09559469 -11.6875 19.1875 C-12.450625 20.115625 -13.21375 21.04375 -14 22 C-14.66 22 -15.32 22 -16 22 C-15.67 22.99 -15.34 23.98 -15 25 C-15.66 25.33 -16.32 25.66 -17 26 C-17.66 25.67 -18.32 25.34 -19 25 C-19 25.99 -19 26.98 -19 28 C-19.66 28 -20.32 28 -21 28 C-21.2475 28.61875 -21.495 29.2375 -21.75 29.875 C-23.22047178 32.37480203 -24.41403076 32.83316022 -27 34 C-26.64808594 33.53851563 -26.29617187 33.07703125 -25.93359375 32.6015625 C-22.41675887 27.95530023 -19.06445967 23.22757922 -15.80859375 18.39453125 C-13.75069363 15.66992483 -11.42436855 13.40239542 -9 11 C-7.37218005 9.08232976 -5.76747267 7.14477957 -4.1875 5.1875 C-3.39730469 4.21167969 -2.60710937 3.23585937 -1.79296875 2.23046875 C-1.20128906 1.49441406 -0.60960938 0.75835937 0 0 Z " fill="#CE0E4B" transform="translate(76,129)"/>
<path d="M0 0 C-3.23153008 3.33924775 -6.58933201 6.53135948 -10 9.6875 C-10.825 10.45449219 -11.65 11.22148437 -12.5 12.01171875 C-14.95375845 13.96322351 -17.04369301 15.01280463 -20 16 C-19.70636093 12.57421081 -19.0063241 11.00818413 -16.875 8.25 C-13.49978306 5.60852587 -11.22480975 5.24851822 -7 5 C-6.87625 4.195625 -6.7525 3.39125 -6.625 2.5625 C-6.41875 1.716875 -6.2125 0.87125 -6 0 C-3.50907189 -1.24546405 -2.58919267 -0.7767578 0 0 Z " fill="#DA0B4E" transform="translate(243,237)"/>
<path d="M0 0 C-0.47506196 4.27555763 -3.06932322 6.06932322 -6 9 C-6.144375 9.721875 -6.28875 10.44375 -6.4375 11.1875 C-6.623125 11.785625 -6.80875 12.38375 -7 13 C-10.01427603 14.40666215 -12.05977053 15.14845728 -15.375 14.625 C-15.91125 14.41875 -16.4475 14.2125 -17 14 C-16.38125 13.7525 -15.7625 13.505 -15.125 13.25 C-12.86253506 12.17856271 -12.86253506 12.17856271 -12 10 C-10.75491604 7.50983207 -9.53283204 7.01313282 -7 6 C-7 5.34 -7 4.68 -7 4 C-2.52941176 0 -2.52941176 0 0 0 Z " fill="#D60C4A" transform="translate(54,29)"/>
<path d="M0 0 C0.66 1.32 1.32 2.64 2 4 C1.28972656 4.98742187 0.57945313 5.97484375 -0.15234375 6.9921875 C-1.08080392 8.28640471 -2.00918525 9.58067848 -2.9375 10.875 C-3.40607422 11.52597656 -3.87464844 12.17695313 -4.35742188 12.84765625 C-6.87145581 16.30397839 -6.87145581 16.30397839 -9 20 C-9.66 20 -10.32 20 -11 20 C-12.125 16.25 -12.125 16.25 -11 14 C-10.34 14 -9.68 14 -9 14 C-8.87625 13.360625 -8.7525 12.72125 -8.625 12.0625 C-8.41875 11.381875 -8.2125 10.70125 -8 10 C-7.34 9.67 -6.68 9.34 -6 9 C-6 8.34 -6 7.68 -6 7 C-4.68 7 -3.36 7 -2 7 C-2.66 5.02 -3.32 3.04 -4 1 C-2.68 0.67 -1.36 0.34 0 0 Z " fill="#CD0D4C" transform="translate(46,152)"/>
<path d="M0 0 C2.16796875 0.359375 2.16796875 0.359375 4 1 C3.7168444 3.08450717 3.42314331 5.16758367 3.125 7.25 C2.96257812 8.41015625 2.80015625 9.5703125 2.6328125 10.765625 C2 14 2 14 0 18 C0.33 14.7 0.66 11.4 1 8 C0.34 8 -0.32 8 -1 8 C-1.33 7.34 -1.66 6.68 -2 6 C-3.60414215 7.18523997 -3.60414215 7.18523997 -5 9 C-5.25069913 11.62570704 -5.25069913 11.62570704 -5 14 C-5.33 13.01 -5.66 12.02 -6 11 C-8.01508358 10.26676204 -8.01508358 10.26676204 -10 10 C-9.0409375 9.5978125 -9.0409375 9.5978125 -8.0625 9.1875 C-5.66868314 8.11332248 -5.66868314 8.11332248 -5 5 C-2.6875 2.25 -2.6875 2.25 0 0 Z " fill="#CA104C" transform="translate(126,79)"/>
<path d="M0 0 C0.66 0 1.32 0 2 0 C2 0.66 2 1.32 2 2 C1.34 2 0.68 2 0 2 C-0.33 3.65 -0.66 5.3 -1 7 C-1.66 6.67 -2.32 6.34 -3 6 C-3 7.32 -3 8.64 -3 10 C-4.175625 10.185625 -4.175625 10.185625 -5.375 10.375 C-8.14057822 10.79117993 -8.14057822 10.79117993 -10 13 C-10.64767793 15.57061311 -10.64767793 15.57061311 -11 18 C-13.31 18.33 -15.62 18.66 -18 19 C-18 17 -18 17 -16.125 14.875 C-14 13 -14 13 -12 13 C-12 12.34 -12 11.68 -12 11 C-10.35546875 9.30859375 -10.35546875 9.30859375 -8.1875 7.4375 C-7.47980469 6.81746094 -6.77210937 6.19742188 -6.04296875 5.55859375 C-4 4 -4 4 -1 3 C-0.67 2.01 -0.34 1.02 0 0 Z " fill="#D10B4A" transform="translate(113,91)"/>
<path d="M0 0 C6.53378117 3.26689058 11.94236013 7.72865703 17 13 C17 13.66 17 14.32 17 15 C18.32 15.66 19.64 16.32 21 17 C21 17.66 21 18.32 21 19 C19.68 19 18.36 19 17 19 C16.6596875 17.7934375 16.6596875 17.7934375 16.3125 16.5625 C15.879375 15.716875 15.44625 14.87125 15 14 C12.45224694 13.10613836 12.45224694 13.10613836 10 13 C10 12.01 10 11.02 10 10 C8.68 10 7.36 10 6 10 C5.938125 9.236875 5.87625 8.47375 5.8125 7.6875 C4.7452344 4.15731377 3.1524958 3.69749774 0 2 C0 1.34 0 0.68 0 0 Z " fill="#C70B4D" transform="translate(222,26)"/>
<path d="M0 0 C0.66 0 1.32 0 2 0 C1.58621168 6.51716611 0.5201023 12.71047171 -0.9375 19.0625 C-1.19225098 20.20609985 -1.19225098 20.20609985 -1.45214844 21.37280273 C-1.9009608 23.26572231 -2.44311482 25.13601074 -3 27 C-3.66 27.33 -4.32 27.66 -5 28 C-5.08107583 26.06318839 -5.13922475 24.1254066 -5.1875 22.1875 C-5.22230469 21.10855469 -5.25710938 20.02960938 -5.29296875 18.91796875 C-4.94936817 15.49570694 -4.33399351 15.28731364 -2 13 C-1.20272437 9.81453528 -1.20272437 9.81453528 -0.8125 6.3125 C-0.65394531 5.13300781 -0.49539063 3.95351562 -0.33203125 2.73828125 C-0.22246094 1.83464844 -0.11289062 0.93101562 0 0 Z " fill="#CC0E4F" transform="translate(278,155)"/>
<path d="M0 0 C0.66 0.33 1.32 0.66 2 1 C-0.50529823 6.75685551 -3.15149769 12.40472761 -6 18 C-6.66 18 -7.32 18 -8 18 C-8.99 20.475 -8.99 20.475 -10 23 C-10.97608217 20.07175348 -11.08226668 18.04386724 -11 15 C-9.68 14.67 -8.36 14.34 -7 14 C-6.34 11.69 -5.68 9.38 -5 7 C-4.01 7 -3.02 7 -2 7 C-1.34 4.69 -0.68 2.38 0 0 Z " fill="#C4134D" transform="translate(267,196)"/>
<path d="M0 0 C-0.78345715 1.17219543 -1.57702836 2.33763668 -2.375 3.5 C-2.81585938 4.1496875 -3.25671875 4.799375 -3.7109375 5.46875 C-4.13632813 5.9740625 -4.56171875 6.479375 -5 7 C-5.66 7 -6.32 7 -7 7 C-7.2475 7.598125 -7.495 8.19625 -7.75 8.8125 C-9.16370012 11.28647521 -10.65055383 12.43370255 -13 14 C-13 12.35 -13 10.7 -13 9 C-12.01 9 -11.02 9 -10 9 C-9.82984375 8.44570312 -9.6596875 7.89140625 -9.484375 7.3203125 C-7.5010539 1.39144836 -7.5010539 1.39144836 -5 -0.5625 C-3 -1 -3 -1 0 0 Z " fill="#D00D50" transform="translate(256,221)"/>
<path d="M0 0 C0.66 0.66 1.32 1.32 2 2 C1.67 2.99 1.34 3.98 1 5 C1.99 5.33 2.98 5.66 4 6 C3.67 6.33 3.34 6.66 3 7 C2.92728259 9.35313555 2.91629132 11.70833668 2.9375 14.0625 C2.94652344 15.35285156 2.95554688 16.64320312 2.96484375 17.97265625 C2.97644531 18.97167969 2.98804688 19.97070312 3 21 C2.01 21 1.02 21 0 21 C0.01160156 20.26394531 0.02320313 19.52789062 0.03515625 18.76953125 C0.04417969 17.79371094 0.05320313 16.81789063 0.0625 15.8125 C0.07410156 14.84957031 0.08570313 13.88664062 0.09765625 12.89453125 C0.00486622 10.14423487 -0.37888315 7.67520409 -1 5 C-1.99 5.495 -1.99 5.495 -3 6 C-2.625 3.5625 -2.625 3.5625 -2 1 C-1.34 0.67 -0.68 0.34 0 0 Z " fill="#CD0C4D" transform="translate(140,49)"/>
<path d="M0 0 C7.21740127 0.64154678 16.10440269 2.28846981 21 8 C19.68 8.33 18.36 8.66 17 9 C16.67 8.34 16.34 7.68 16 7 C13.60080084 5.89597496 13.60080084 5.89597496 10.75 4.9375 C9.79609375 4.59589844 8.8421875 4.25429687 7.859375 3.90234375 C5.24547275 3.07746476 2.69636852 2.47727691 0 2 C0 1.34 0 0.68 0 0 Z " fill="#C50F4B" transform="translate(178,5)"/>
<path d="M0 0 C3 2 3 2 3.6875 5.125 C3.790625 6.07375 3.89375 7.0225 4 8 C2.68 8 1.36 8 0 8 C0 10.64 0 13.28 0 16 C-0.66 16.33 -1.32 16.66 -2 17 C-2.25287193 10.93107371 -1.69832609 5.83799592 0 0 Z " fill="#CB0D4E" transform="translate(3,106)"/>
<path d="M0 0 C1.32 0 2.64 0 4 0 C4 0.66 4 1.32 4 2 C3.34 2 2.68 2 2 2 C1.7525 2.763125 1.505 3.52625 1.25 4.3125 C-0.10995558 7.2364045 -1.31585826 8.30004356 -4 10 C-4.33 8.35 -4.66 6.7 -5 5 C-4.34 4.67 -3.68 4.34 -3 4 C-3.66 3.01 -4.32 2.02 -5 1 C-3.68 1.33 -2.36 1.66 -1 2 C-0.67 1.34 -0.34 0.68 0 0 Z " fill="#D2094D" transform="translate(70,121)"/>
<path d="M0 0 C1 2 1 2 0.5 4.4375 C-1.27816686 7.47520171 -2.87903686 8.00277437 -6.11328125 9.17578125 C-9.24567056 10.54417492 -11.47590332 12.72215666 -14 15 C-14.66 14.67 -15.32 14.34 -16 14 C-10.71333087 9.27676273 -5.39882424 4.59474404 0 0 Z " fill="#BF164E" transform="translate(157,167)"/>
<path d="M0 0 C2 2 2 2 2.22705078 3.97119141 C2.21657715 4.75671387 2.20610352 5.54223633 2.1953125 6.3515625 C2.18886719 7.20234375 2.18242187 8.053125 2.17578125 8.9296875 C2.15902344 9.81914063 2.14226562 10.70859375 2.125 11.625 C2.11597656 12.5221875 2.10695312 13.419375 2.09765625 14.34375 C2.0740497 16.56276586 2.0411231 18.78125077 2 21 C0.04020294 18.06030441 -0.26841156 17.32577092 -0.44921875 14.0234375 C-0.49240234 13.270625 -0.53558594 12.5178125 -0.58007812 11.7421875 C-0.61552734 10.96101563 -0.65097656 10.17984375 -0.6875 9.375 C-0.73455078 8.58609375 -0.78160156 7.7971875 -0.83007812 6.984375 C-0.934515 4.99151402 -0.97269441 2.99540882 -1 1 C-0.67 0.67 -0.34 0.34 0 0 Z " fill="#C51250" transform="translate(213,75)"/>
<path d="M0 0 C0.66 0.33 1.32 0.66 2 1 C0.37965717 3.14949538 -1.24595794 5.2946141 -2.875 7.4375 C-3.33519531 8.04916016 -3.79539063 8.66082031 -4.26953125 9.29101562 C-7.7734375 13.88671875 -7.7734375 13.88671875 -10 15 C-10 13.68 -10 12.36 -10 11 C-9.34 11 -8.68 11 -8 11 C-8 10.34 -8 9.68 -8 9 C-7.34 9 -6.68 9 -6 9 C-6 8.34 -6 7.68 -6 7 C-5.34 7 -4.68 7 -4 7 C-4 5.35 -4 3.7 -4 2 C-2.68 2 -1.36 2 0 2 C0 1.34 0 0.68 0 0 Z " fill="#C41050" transform="translate(145,122)"/>
<path d="M0 0 C1.65 0 3.3 0 5 0 C1.59445921 5.26630019 -1.87668862 10.2703193 -6 15 C-6.33 14.01 -6.66 13.02 -7 12 C-6.34 12 -5.68 12 -5 12 C-5 10.68 -5 9.36 -5 8 C-4.34 8 -3.68 8 -3 8 C-3 7.34 -3 6.68 -3 6 C-2.01 6 -1.02 6 0 6 C0 4.02 0 2.04 0 0 Z " fill="#C31252" transform="translate(196,51)"/>
<path d="M0 0 C7.66742597 5.96583144 7.66742597 5.96583144 9 11 C8.34 10.67 7.68 10.34 7 10 C7 9.34 7 8.68 7 8 C3.41672247 6.99782936 3.41672247 6.99782936 0 8 C-0.99435406 4.90645403 -0.87840996 3.09720845 0 0 Z " fill="#CE094A" transform="translate(243,45)"/>
<path d="M0 0 C1.98 0.99 1.98 0.99 4 2 C4 3.32 4 4.64 4 6 C5.32 6 6.64 6 8 6 C7.67 7.32 7.34 8.64 7 10 C7.66 10 8.32 10 9 10 C9 10.66 9 11.32 9 12 C9.66 12 10.32 12 11 12 C10.67 13.32 10.34 14.64 10 16 C6 11.375 6 11.375 6 8 C5.01 7.67 4.02 7.34 3 7 C0 2.66666667 0 2.66666667 0 0 Z " fill="#CB0F4C" transform="translate(20,213)"/>
<path d="M0 0 C1.04449911 3.13349732 0.93423645 3.98968256 0 7 C-0.99 6.67 -1.98 6.34 -3 6 C-3 6.99 -3 7.98 -3 9 C-3.66 9 -4.32 9 -5 9 C-5.2475 9.61875 -5.495 10.2375 -5.75 10.875 C-7.22047178 13.37480203 -8.41403076 13.83316022 -11 15 C-10.62488281 14.50371094 -10.24976563 14.00742188 -9.86328125 13.49609375 C-6.50836081 9.04258476 -3.22288764 4.54995902 0 0 Z " fill="#BE134F" transform="translate(60,148)"/>
<path d="M0 0 C2 3 2 3 1.8125 5.25 C0.80660001 8.65458459 -0.54040868 11.76351489 -2 15 C-2.66 15 -3.32 15 -4 15 C-2.9318153 9.88634986 -1.76892524 4.92772031 0 0 Z " fill="#CB0E4C" transform="translate(8,89)"/>
<path d="M0 0 C-2.36797991 2.61724095 -4.89600354 4.32861729 -8 6 C-8.66 6 -9.32 6 -10 6 C-9.39816251 3.97954558 -8.72693904 1.97888961 -8 0 C-5.13822943 -1.43088528 -3.06624227 -0.59991697 0 0 Z " fill="#CD0E4E" transform="translate(214,259)"/>
<path d="M0 0 C0.66 0 1.32 0 2 0 C3.10228696 4.40914783 3.07654536 8.48382401 3 13 C2.01 12.67 1.02 12.34 0 12 C-1.16063604 7.74433453 -0.76173392 4.3164922 0 0 Z " fill="#D20A4B" transform="translate(105,189)"/>
<path d="M0 0 C3 1 3 1 4.1875 3.3125 C5 6 5 6 5 10 C4.34 10 3.68 10 3 10 C2.34 9.01 1.68 8.02 1 7 C0.34 6.34 -0.32 5.68 -1 5 C-0.625 2.375 -0.625 2.375 0 0 Z " fill="#D00951" transform="translate(268,86)"/>
<path d="M0 0 C2.61500768 2.36595933 4.38999603 4.86049226 6 8 C5.67 8.66 5.34 9.32 5 10 C3.02 9.01 1.04 8.02 -1 7 C-0.67 4.69 -0.34 2.38 0 0 Z " fill="#CE0D4D" transform="translate(259,66)"/>
<path d="M0 0 C-3.43361902 3.63559661 -6.7973607 6.36113346 -11 9 C-10.67 7.68 -10.34 6.36 -10 5 C-9.01 5 -8.02 5 -7 5 C-6.814375 3.7934375 -6.814375 3.7934375 -6.625 2.5625 C-6.41875 1.716875 -6.2125 0.87125 -6 0 C-3.50907189 -1.24546405 -2.58919267 -0.7767578 0 0 Z " fill="#C3124E" transform="translate(243,237)"/>
<path d="M0 0 C2.4375 0.1875 2.4375 0.1875 5 1 C6.7941758 3.56310828 7 4.83119306 7 8 C2.8575633 6.61918777 1.67796901 4.40174442 -1 1 C-0.67 0.67 -0.34 0.34 0 0 Z " fill="#CF0D4B" transform="translate(38,235)"/>
<path d="M0 0 C-2.42130331 2.42130331 -3.80111377 2.52840504 -7.125 3.125 C-8.03507813 3.29257812 -8.94515625 3.46015625 -9.8828125 3.6328125 C-10.58148438 3.75398438 -11.28015625 3.87515625 -12 4 C-12 3.34 -12 2.68 -12 2 C-11.01 2 -10.02 2 -9 2 C-9 1.34 -9 0.68 -9 0 C-5.93109813 -1.53445094 -3.29905734 -0.54984289 0 0 Z " fill="#C50A51" transform="translate(196,269)"/>
<path d="M0 0 C1.10844919 3.32534757 0.84454356 5.62182575 0 9 C0.66 9.33 1.32 9.66 2 10 C0.625 12 0.625 12 -1 14 C-1.66 14 -2.32 14 -3 14 C-2.48594831 9.03083364 -1.76615118 4.70973649 0 0 Z " fill="#B11D51" transform="translate(119,147)"/>
<path d="M0 0 C1.32 0 2.64 0 4 0 C4 3.96 4 7.92 4 12 C2.33167423 9.49751135 1.37618326 7.58850813 0.375 4.8125 C0.11460937 4.09707031 -0.14578125 3.38164062 -0.4140625 2.64453125 C-0.60742188 2.10183594 -0.80078125 1.55914062 -1 1 C-0.67 0.67 -0.34 0.34 0 0 Z " fill="#D10E48" transform="translate(227,170)"/>
<path d="M0 0 C0.99 0.33 1.98 0.66 3 1 C2.02471263 2.33617352 1.04466681 3.6688751 0.0625 5 C-0.48277344 5.7425 -1.02804688 6.485 -1.58984375 7.25 C-2.28787109 8.11625 -2.28787109 8.11625 -3 9 C-3.33 9 -3.66 9 -4 9 C-4 7.35 -4 5.7 -4 4 C-2.68 3.34 -1.36 2.68 0 2 C0 1.34 0 0.68 0 0 Z " fill="#CD0C51" transform="translate(175,81)"/>
<path d="M0 0 C0 3.54404336 -0.60989485 4.10267905 -2.875 6.6875 C-3.40867187 7.31011719 -3.94234375 7.93273437 -4.4921875 8.57421875 C-6 10 -6 10 -8 10 C-8 9.01 -8 8.02 -8 7 C-7.01 7 -6.02 7 -5 7 C-5 6.01 -5 5.02 -5 4 C-4.34 4 -3.68 4 -3 4 C-3 3.01 -3 2.02 -3 1 C-2.01 0.67 -1.02 0.34 0 0 Z " fill="#C50F4C" transform="translate(84,108)"/>
<path d="M0 0 C2.0625 0.4375 2.0625 0.4375 4 1 C4 1.99 4 2.98 4 4 C3.34 4 2.68 4 2 4 C1.34 5.65 0.68 7.3 0 9 C-0.98150241 6.05549278 -1.1613058 4.06481021 -1 1 C-0.67 0.67 -0.34 0.34 0 0 Z " fill="#D10B4F" transform="translate(257,210)"/>
<path d="M0 0 C0 3.59857954 -0.95830515 5.09451118 -3 8 C-3.66 8 -4.32 8 -5 8 C-6.125 4.25 -6.125 4.25 -5 2 C-3.67696283 1.6278958 -2.34262065 1.29369827 -1 1 C-0.67 0.67 -0.34 0.34 0 0 Z " fill="#C70A49" transform="translate(40,164)"/>
<path d="M0 0 C-0.66 1.32 -1.32 2.64 -2 4 C-3.32 4 -4.64 4 -6 4 C-6.33 4.66 -6.66 5.32 -7 6 C-7.66 6 -8.32 6 -9 6 C-9 5.01 -9 4.02 -9 3 C-8.34 3 -7.68 3 -7 3 C-7 2.34 -7 1.68 -7 1 C-4.53721199 -0.231394 -2.7204945 -0.07159196 0 0 Z " fill="#D60851" transform="translate(184,147)"/>
<path d="M0 0 C0.99 0.99 1.98 1.98 3 3 C1.35 4.65 -0.3 6.3 -2 8 C-2 4.23312136 -1.76462683 3.08809695 0 0 Z " fill="#D5094E" transform="translate(63,129)"/>
<path d="M0 0 C-0.66 0 -1.32 0 -2 0 C-1.67 0.99 -1.34 1.98 -1 3 C-3.97 2.505 -3.97 2.505 -7 2 C-7 2.66 -7 3.32 -7 4 C-8.65 4 -10.3 4 -12 4 C-8.15336308 0.86570325 -4.95471579 -1.65157193 0 0 Z " fill="#C50B50" transform="translate(92,9)"/>
<path d="M0 0 C0.99 0.33 1.98 0.66 3 1 C2.02471263 2.33617352 1.04466681 3.6688751 0.0625 5 C-0.48277344 5.7425 -1.02804688 6.485 -1.58984375 7.25 C-2.28787109 8.11625 -2.28787109 8.11625 -3 9 C-3.33 9 -3.66 9 -4 9 C-4 6.69 -4 4.38 -4 2 C-3.01 2 -2.02 2 -1 2 C-0.67 1.34 -0.34 0.68 0 0 Z " fill="#CB094E" transform="translate(205,41)"/>
<path d="M0 0 C1.27208622 0.62244599 2.54261882 1.24806767 3.8125 1.875 C4.52019531 2.22304688 5.22789062 2.57109375 5.95703125 2.9296875 C8 4 8 4 11 6 C10.67 6.66 10.34 7.32 10 8 C9.01 7.67 8.02 7.34 7 7 C7 6.34 7 5.68 7 5 C5.35 5 3.7 5 2 5 C2 4.01 2 3.02 2 2 C1.34 2 0.68 2 0 2 C0 1.34 0 0.68 0 0 Z " fill="#C00F4C" transform="translate(210,18)"/>
<path d="M0 0 C0.33 0.99 0.66 1.98 1 3 C1.99 2.67 2.98 2.34 4 2 C4 3.32 4 4.64 4 6 C2.02 6.66 0.04 7.32 -2 8 C-1.34 5.36 -0.68 2.72 0 0 Z " fill="#DE064A" transform="translate(108,145)"/>
<path d="M0 0 C-1.44253657 3.36591866 -3.33264727 5.51047079 -6 8 C-6.36458333 3.50347222 -6.36458333 3.50347222 -4.6875 1.1875 C-3 0 -3 0 0 0 Z " fill="#CD1051" transform="translate(167,95)"/>
<path d="M0 0 C1.33333333 0.66666667 2.66666667 1.33333333 4 2 C4 2.66 4 3.32 4 4 C1.625 5.0625 1.625 5.0625 -1 6 C-1.66 5.67 -2.32 5.34 -3 5 C-3 4.34 -3 3.68 -3 3 C-2.34 3 -1.68 3 -1 3 C-0.67 2.01 -0.34 1.02 0 0 Z " fill="#DB0D51" transform="translate(60,23)"/>
<path d="M0 0 C3.63 0.66 7.26 1.32 11 2 C11 2.33 11 2.66 11 3 C7.37 3.33 3.74 3.66 0 4 C0 2.68 0 1.36 0 0 Z " fill="#C90A4C" transform="translate(167,2)"/>
<path d="M0 0 C0.33 0 0.66 0 1 0 C1 1.98 1 3.96 1 6 C-0.65 6.66 -2.3 7.32 -4 8 C-2.87548273 5.0280615 -1.77706209 2.66559313 0 0 Z " fill="#C30E4E" transform="translate(30,189)"/>
<path d="M0 0 C1.12377697 3.30435084 0.89554742 5.0506862 -0.4375 8.25 C-0.72496094 8.95640625 -1.01242187 9.6628125 -1.30859375 10.390625 C-1.53675781 10.92171875 -1.76492188 11.4528125 -2 12 C-2.33 12 -2.66 12 -3 12 C-3.34833144 7.12335991 -2.41685712 4.22949995 0 0 Z " fill="#BF134C" transform="translate(272,184)"/>
<path d="M0 0 C0.66 1.32 1.32 2.64 2 4 C1.01 5.485 1.01 5.485 0 7 C-0.66 7 -1.32 7 -2 7 C-2.66 5.02 -3.32 3.04 -4 1 C-2.68 0.67 -1.36 0.34 0 0 Z " fill="#D9094F" transform="translate(46,152)"/>
<path d="M0 0 C0.66 0 1.32 0 2 0 C2 1.65 2 3.3 2 5 C1.01 4.67 0.02 4.34 -1 4 C-1 4.99 -1 5.98 -1 7 C-1.99 7 -2.98 7 -4 7 C-2.79618552 4.50638429 -1.54571278 2.31856917 0 0 Z " fill="#C80B49" transform="translate(82,122)"/>
<path d="M0 0 C0.66 0 1.32 0 2 0 C1.34 3.3 0.68 6.6 0 10 C-0.66 10 -1.32 10 -2 10 C-1.125 2.25 -1.125 2.25 0 0 Z " fill="#C60B4B" transform="translate(131,108)"/>
<path d="M0 0 C0.33 0.66 0.66 1.32 1 2 C-1.16798732 7.4770206 -1.16798732 7.4770206 -4.1875 9.375 C-4.785625 9.58125 -5.38375 9.7875 -6 10 C-5.34 8.35 -4.68 6.7 -4 5 C-3.34 5 -2.68 5 -2 5 C-1.34 3.35 -0.68 1.7 0 0 Z " fill="#C61052" transform="translate(28,54)"/>
<path d="M0 0 C0.66 0 1.32 0 2 0 C1.67 1.98 1.34 3.96 1 6 C-0.65 6.33 -2.3 6.66 -4 7 C-2.79618552 4.50638429 -1.54571278 2.31856917 0 0 Z " fill="#C00D56" transform="translate(33,47)"/>
<path d="M0 0 C0 0.66 0 1.32 0 2 C-0.7425 2.268125 -1.485 2.53625 -2.25 2.8125 C-4.86636554 3.94229421 -6.80187111 5.20893202 -9 7 C-9.66 6.34 -10.32 5.68 -11 5 C-9.54462432 4.16151196 -8.08559627 3.32936066 -6.625 2.5 C-5.81289062 2.0359375 -5.00078125 1.571875 -4.1640625 1.09375 C-2 0 -2 0 0 0 Z " fill="#C10E50" transform="translate(80,13)"/>
<path d="M0 0 C3.3 0.99 6.6 1.98 10 3 C10 3.66 10 4.32 10 5 C8.53984709 4.71758359 7.08190207 4.42373386 5.625 4.125 C4.81289062 3.96257812 4.00078125 3.80015625 3.1640625 3.6328125 C1 3 1 3 -1 1 C-0.67 0.67 -0.34 0.34 0 0 Z " fill="#C4154F" transform="translate(86,268)"/>
<path d="M0 0 C0.66 0 1.32 0 2 0 C1.8125 1.875 1.8125 1.875 1 4 C-1.5625 5.25 -1.5625 5.25 -4 6 C-2.84826645 3.53199953 -1.95216435 1.95216435 0 0 Z " fill="#CB124C" transform="translate(52,29)"/>
<path d="M0 0 C0.99 0.66 1.98 1.32 3 2 C2.01 2.33 1.02 2.66 0 3 C-0.33 3.66 -0.66 4.32 -1 5 C-2.32 5 -3.64 5 -5 5 C-5 4.34 -5 3.68 -5 3 C-4.34 3 -3.68 3 -3 3 C-3 2.34 -3 1.68 -3 1 C-2.01 0.67 -1.02 0.34 0 0 Z " fill="#DA0549" transform="translate(158,275)"/>
<path d="M0 0 C0.99 0.33 1.98 0.66 3 1 C2.67 2.98 2.34 4.96 2 7 C0.68 5.35 -0.64 3.7 -2 2 C-1.34 1.34 -0.68 0.68 0 0 Z " fill="#D70E50" transform="translate(122,100)"/>
<path d="M0 0 C6.64615385 1.47692308 6.64615385 1.47692308 8.4375 4.125 C8.7159375 5.053125 8.7159375 5.053125 9 6 C5.06326356 4.68775452 2.77280706 3.08089673 0 0 Z " fill="#C5154F" transform="translate(60,255)"/>
<path d="M0 0 C0.99 0 1.98 0 3 0 C1.62845496 2.95409701 0.01136276 5.44008376 -2 8 C-2 6.35 -2 4.7 -2 3 C-1.34 3 -0.68 3 0 3 C0 2.01 0 1.02 0 0 Z " fill="#BF0D4F" transform="translate(25,183)"/>
<path d="M0 0 C0.66 0 1.32 0 2 0 C2.1875 2.875 2.1875 2.875 2 6 C1.01 6.66 0.02 7.32 -1 8 C-0.67 5.36 -0.34 2.72 0 0 Z " fill="#D70B43" transform="translate(278,155)"/>
<path d="M0 0 C2.0625 0.4375 2.0625 0.4375 4 1 C3.67 3.31 3.34 5.62 3 8 C2.71125 7.401875 2.4225 6.80375 2.125 6.1875 C0.95257974 3.80672208 0.95257974 3.80672208 -1 1 C-0.67 0.67 -0.34 0.34 0 0 Z " fill="#D10A4D" transform="translate(113,128)"/>
<path d="M0 0 C0.99 0.33 1.98 0.66 3 1 C2.67 2.98 2.34 4.96 2 7 C1.34 7 0.68 7 0 7 C0 4.69 0 2.38 0 0 Z " fill="#D40D51" transform="translate(212,67)"/>
</svg>
